<svg xmlns="http://www.w3.org/2000/svg" width="512" height="512" viewBox="0 0 512 512" version="1.1">
	<path d="M 240.745 9.458 C 233.455 11.983, 225.624 16.591, 219.925 21.707 C 217.006 24.327, 214.528 25.306, 206.425 27.035 C 188.037 30.960, 175.939 34.903, 152.403 44.643 C 151.719 44.926, 151.331 48.367, 151.373 53.798 C 151.455 64.630, 149.113 70.415, 141.902 77.184 C 135.942 82.780, 129.372 85.238, 120.516 85.187 C 114.089 85.150, 105.283 82.251, 102.909 79.390 C 102.274 78.626, 101.221 78, 100.568 78 C 99.916 78, 94.437 82.677, 88.393 88.393 C 71.909 103.985, 53.470 127.663, 42.639 147.145 L 38.945 153.791 41.722 156.678 C 43.250 158.266, 45.795 161.801, 47.378 164.533 L 50.256 169.500 54.205 158 C 59.995 141.141, 58.551 142, 81.102 142 L 99.855 142 101.927 144.635 C 104.515 147.925, 104.580 152.061, 102.092 155.139 C 100.288 157.371, 99.404 157.527, 85.957 158 L 71.731 158.500 65.616 176.452 C 60.151 192.494, 59.176 194.593, 56.460 196.172 C 54.270 197.445, 52.591 197.721, 50.460 197.160 C 47.454 196.369, 45.429 193.710, 35.325 177.286 L 31.151 170.500 29.034 175.429 C 24.554 185.862, 18.805 205.099, 16.014 219 C 5.345 272.124, 12.002 324.585, 35.713 374.250 C 40.936 385.190, 43 388.103, 43 384.535 C 43 382.597, 46.133 381, 49.934 381 L 53 381 53 367.955 C 53 355.266, 53.070 354.839, 55.579 352.330 L 58.159 349.750 97.079 350.489 C 118.486 350.895, 136 350.991, 136 350.703 C 136 350.414, 135.038 347.663, 133.861 344.589 L 131.722 339 99.295 339 C 78.351 339, 66.167 338.624, 64.886 337.939 C 60.252 335.459, 60.701 327.368, 65.597 325.138 C 67.280 324.371, 77.537 324, 97.047 324 C 112.971 324, 126 323.847, 126 323.660 C 126 323.473, 125.068 319.760, 123.928 315.410 C 121.983 307.983, 121.496 297.204, 122.332 280.055 L 122.500 276.610 110.006 270.818 C 103.135 267.633, 96.422 264.213, 95.090 263.218 C 90.071 259.471, 93.228 251, 99.643 251 C 100.974 251, 107.522 253.478, 114.192 256.506 C 120.863 259.535, 126.395 261.897, 126.486 261.756 C 126.578 261.615, 127.680 258.575, 128.935 255 C 136.315 233.987, 152.022 211.497, 168.559 198.265 C 198.381 174.403, 234.267 164.806, 270.506 171.001 C 313.161 178.293, 347.591 204.100, 365.941 242.534 C 369.678 250.363, 375 265.646, 375 268.552 C 375 269.348, 375.251 270, 375.557 270 C 375.864 270, 384.401 266.565, 394.530 262.367 C 411.488 255.339, 413.179 254.831, 415.887 255.953 C 420.013 257.662, 421.626 261.888, 419.628 265.753 C 418.309 268.303, 415.339 269.859, 398.049 277.054 L 378 285.398 377.983 295.949 C 377.973 301.752, 377.298 309.650, 376.483 313.500 C 375.667 317.349, 375 320.837, 375 321.250 C 375 321.662, 391.355 322, 411.345 322 C 444.692 322, 447.820 322.144, 449.267 323.750 C 452.233 327.041, 452.369 330.459, 449.661 333.609 L 447.175 336.500 408.250 336.783 L 369.326 337.066 366.768 343.283 C 365.361 346.702, 364.414 349.837, 364.664 350.250 C 364.914 350.663, 385.701 351, 410.859 351 C 445.102 351, 456.902 351.302, 457.800 352.200 C 458.617 353.017, 459 357.800, 459 367.200 L 459 381 462.365 381 C 464.241 381, 466.881 381.905, 468.331 383.046 L 470.932 385.091 475.104 376.796 C 486.855 353.433, 494.871 327.326, 499.144 298.500 C 500.911 286.575, 500.911 247.425, 499.144 235.500 C 498.410 230.550, 496.918 222.225, 495.828 217 C 480.858 145.227, 434.701 84.086, 369.775 50.024 C 357.930 43.810, 336.965 34.983, 334.151 35.025 C 333.243 35.038, 328.773 38.811, 324.217 43.410 L 315.934 51.770 316.562 59.635 C 318.716 86.630, 300.318 112.509, 273.992 119.515 C 266.789 121.431, 251.953 121.399, 244.460 119.450 C 241.182 118.597, 235.186 116.112, 231.134 113.929 L 223.769 109.958 213.134 113.681 C 203.617 117.013, 201.431 117.409, 192.318 117.452 C 182.405 117.499, 182.056 117.423, 179.091 114.585 C 171.504 107.322, 172.990 98.418, 184.134 84.356 C 186.812 80.977, 191.814 75.610, 195.250 72.429 L 201.496 66.646 202.174 71.073 C 202.546 73.508, 203.505 77.602, 204.304 80.172 L 205.757 84.843 202.298 88.172 C 197.905 92.399, 191.588 100.921, 192.311 101.645 C 193.229 102.563, 202.802 100.146, 210.571 97.035 C 218.779 93.749, 243.497 81.644, 246.350 79.514 C 248.118 78.194, 248.065 77.962, 245.163 74.316 C 241.410 69.603, 236.754 60.416, 237.182 58.571 C 237.357 57.818, 243.575 53.163, 251 48.227 C 269.046 36.231, 291.723 18.935, 291.941 17 C 292.065 15.908, 282.114 11.085, 275.645 9.102 C 265.759 6.071, 250.058 6.231, 240.745 9.458 M 304 27.567 C 304 27.878, 305.193 29.697, 306.651 31.609 L 309.302 35.085 312.226 32.292 L 315.150 29.500 311.325 28.327 C 307.073 27.023, 304 26.704, 304 27.567 M 281.615 370.561 C 281.277 371.442, 281 379.497, 281 388.459 C 281 401.507, 281.290 404.996, 282.456 405.964 C 284.263 407.463, 284.833 407.124, 293.613 399.321 C 297.525 395.844, 301.125 393.011, 301.613 393.024 C 302.101 393.037, 306.100 396.187, 310.500 400.023 C 314.900 403.858, 318.950 406.847, 319.500 406.665 C 320.118 406.460, 320.500 399.307, 320.500 387.917 L 320.500 369.500 301.365 369.229 C 284.572 368.991, 282.155 369.154, 281.615 370.561 M 31.455 414.455 C 29.157 416.752, 29 417.589, 29 427.500 C 29 437.411, 29.157 438.248, 31.455 440.545 L 33.909 443 59.517 443 L 85.125 443 92.961 449.905 C 134.232 486.272, 181.413 506.152, 238.136 511.074 C 267.898 513.657, 303.812 509.278, 333.946 499.393 C 350.400 493.996, 375.895 481.684, 390 472.324 C 401.100 464.958, 418.512 451.303, 423.437 446.102 L 426.374 443 452.733 443 L 479.091 443 481.545 440.545 C 483.784 438.307, 484 437.307, 484 429.195 C 484 418.054, 482.846 414.490, 478.778 413.073 C 476.624 412.322, 409.450 412, 254.805 412 L 33.909 412 31.455 414.455" stroke="none" fill="black" fill-rule="evenodd"/>
</svg>