<svg xmlns="http://www.w3.org/2000/svg" version="1.1" xmlns:xlink="http://www.w3.org/1999/xlink" xmlns:svgjs="http://svgjs.com/svgjs" width="512" height="512" x="0" y="0" viewBox="0 0 48 48" style="enable-background:new 0 0 512 512" xml:space="preserve" class=""><g><g xmlns="http://www.w3.org/2000/svg" id="Line"><path d="m27.59 18.74a3.33 3.33 0 0 0 1.58.76l11 2.11a4.49 4.49 0 0 0 5.09-5.84l-3.56-10.66a3.41 3.41 0 0 0 -1-1.46 3.35 3.35 0 0 0 -2.44-.82 3.31 3.31 0 0 0 -2.26 1.17l-.89 1a21.87 21.87 0 0 0 -11.11-3 22.25 22.25 0 0 0 -22 20.8 22 22 0 0 0 42.33 9.54 5 5 0 0 0 -.47-4.72 4.92 4.92 0 0 0 -4.1-2.19 5 5 0 0 0 -4.66 3.06 12.08 12.08 0 0 1 -11.1 7.51h-.31a12.18 12.18 0 0 1 -11.69-11.48 12 12 0 0 1 16.3-11.73l-1 1.2a3.37 3.37 0 0 0 .29 4.75z" fill="#000000" data-original="#000000"></path></g></g></svg>