<svg xmlns="http://www.w3.org/2000/svg" version="1.1" xmlns:xlink="http://www.w3.org/1999/xlink" xmlns:svgjs="http://svgjs.com/svgjs" width="512" height="512" x="0" y="0" viewBox="0 0 24 24" style="enable-background:new 0 0 512 512" xml:space="preserve" class=""><g><g xmlns="http://www.w3.org/2000/svg" id="Layer_118" data-name="Layer 118"><path d="m15.62 10-10.2-5.62a2.32 2.32 0 0 0 -2.34-.08 2.33 2.33 0 0 0 -1.08 2.09v11.23a2.37 2.37 0 0 0 1.06 2.1 2 2 0 0 0 1 .28 2.78 2.78 0 0 0 1.32-.37l10.24-5.63a2.35 2.35 0 0 0 1.38-2 2.35 2.35 0 0 0 -1.38-2z" fill="#000000" data-original="#000000" class=""></path><path d="m19.5 4a2.5 2.5 0 0 0 -2.5 2.5v11a2.5 2.5 0 0 0 5 0v-11a2.5 2.5 0 0 0 -2.5-2.5z" fill="#000000" data-original="#000000" class=""></path></g></g></svg>